<svg width="900" height="260" viewBox="0 0 900 260" fill="none" xmlns="http://www.w3.org/2000/svg">
<path d="M229 230H104L229 30V230Z" fill="#777777"/>
<path d="M29 229.75H229L29 30V229.75Z" fill="#444444"/>
<path d="M669 230H794L669 30V230Z" fill="#777777"/>
<path d="M869 229.75H669L869 30V229.75Z" fill="#444444"/>
<path d="M444 130.183C444 185.172 399.228 229.75 344 229.75C288.772 229.75 244 185.172 244 130.183L444 130.183Z" fill="#777777"/>
<path d="M413.034 57.532C373.077 19.5705 309.778 21.0481 271.652 60.8324C233.525 100.617 235.009 163.642 274.966 201.604L413.034 57.532Z" fill="#444444"/>
<path d="M539.614 30L655.229 230H424L539.614 30Z" fill="#444444"/>
</svg>
