<svg width="500" height="500" viewBox="0 0 500 500" fill="none" xmlns="http://www.w3.org/2000/svg">
<path d="M230 235H80L230 35V235Z" fill="#777777"/>
<path d="M30 235H230L30 35V235Z" fill="#444444"/>
<path d="M265 455H415L265 255V455Z" fill="#777777"/>
<path d="M465 455H265L465 255V455Z" fill="#444444"/>
<path d="M465 135.308C465 190.366 420.228 235 365 235C309.772 235 265 190.366 265 135.308L465 135.308Z" fill="#777777"/>
<path d="M434.034 62.5664C394.077 24.5574 330.778 26.037 292.652 65.871C254.525 105.705 256.009 168.809 295.966 206.818L434.034 62.5664Z" fill="#444444"/>
<path d="M129.614 255L245.229 455H14L129.614 255Z" fill="#444444"/>
</svg>
